<?xml version="1.0" standalone="no"?>
<svg viewBox="0 0 200 200" xmlns="http://www.w3.org/2000/svg">
  <path fill="#BFDBFE" d="M28.9,-40.7C42.7,-36.2,62.5,-36.9,70,-29.4C77.5,-21.8,72.8,-6,64.2,4.7C55.7,15.5,43.4,21.2,34.7,28.5C26,35.8,20.9,44.7,11.2,55.6C1.5,66.4,-12.7,79.1,-24.6,78.2C-36.6,77.3,-46.2,62.8,-57.7,49.8C-69.3,36.8,-82.8,25.3,-85.2,11.9C-87.7,-1.5,-79,-16.8,-68.4,-27.6C-57.8,-38.3,-45.2,-44.5,-33.5,-49.9C-21.7,-55.4,-10.9,-60.1,-1.6,-57.6C7.6,-55,15.2,-45.3,28.9,-40.7Z" transform="translate(100 100)" />
</svg>
